<mxfile host="65bd71144e" pages="2">
    <diagram name="v2" id="YnUaao9ZgL63_muq6OQb">
        <mxGraphModel dx="568" dy="318" grid="1" gridSize="10" guides="1" tooltips="1" connect="1" arrows="1" fold="1" page="1" pageScale="1" pageWidth="827" pageHeight="1169" math="0" shadow="0">
            <root>
                <mxCell id="0"/>
                <mxCell id="1" parent="0"/>
                <mxCell id="KKsMm4uo4mqxCXdgR0GW-2" value="" style="rounded=0;whiteSpace=wrap;html=1;" parent="1" vertex="1">
                    <mxGeometry x="430" y="110" width="60" height="20" as="geometry"/>
                </mxCell>
                <mxCell id="KKsMm4uo4mqxCXdgR0GW-1" value="" style="rounded=0;whiteSpace=wrap;html=1;" parent="1" vertex="1">
                    <mxGeometry x="430" y="30" width="60" height="20" as="geometry"/>
                </mxCell>
                <mxCell id="b28ZHeFcu94E5JFnOyzC-1" value="" style="endArrow=baseDash;html=1;rounded=0;startArrow=baseDash;startFill=0;endFill=0;exitX=0.5;exitY=1;exitDx=0;exitDy=0;" parent="1" edge="1" source="zUWISpWSStwopmOI35eP-10">
                    <mxGeometry width="50" height="50" relative="1" as="geometry">
                        <mxPoint x="390" y="60" as="sourcePoint"/>
                        <mxPoint x="380" y="100" as="targetPoint"/>
                        <Array as="points">
                            <mxPoint x="120" y="60"/>
                            <mxPoint x="100" y="40"/>
                            <mxPoint x="40" y="40"/>
                            <mxPoint x="40" y="120"/>
                            <mxPoint x="100" y="120"/>
                            <mxPoint x="120" y="100"/>
                        </Array>
                    </mxGeometry>
                </mxCell>
                <mxCell id="b28ZHeFcu94E5JFnOyzC-9" value="" style="endArrow=baseDash;html=1;rounded=0;startArrow=baseDash;startFill=0;endFill=0;entryX=0.5;entryY=0;entryDx=0;entryDy=0;" parent="1" edge="1" target="zUWISpWSStwopmOI35eP-11">
                    <mxGeometry width="50" height="50" relative="1" as="geometry">
                        <mxPoint x="380" y="100" as="sourcePoint"/>
                        <mxPoint x="520" y="100" as="targetPoint"/>
                    </mxGeometry>
                </mxCell>
                <mxCell id="b28ZHeFcu94E5JFnOyzC-10" value="" style="endArrow=baseDash;html=1;rounded=0;startArrow=baseDash;startFill=0;endFill=0;exitX=0.5;exitY=1;exitDx=0;exitDy=0;entryX=0.5;entryY=1;entryDx=0;entryDy=0;" parent="1" edge="1" target="zUWISpWSStwopmOI35eP-12" source="zUWISpWSStwopmOI35eP-10">
                    <mxGeometry width="50" height="50" relative="1" as="geometry">
                        <mxPoint x="400" y="60" as="sourcePoint"/>
                        <mxPoint x="480" y="60" as="targetPoint"/>
                    </mxGeometry>
                </mxCell>
                <mxCell id="b28ZHeFcu94E5JFnOyzC-11" value="" style="endArrow=baseDash;html=1;rounded=0;startArrow=baseDash;startFill=0;endFill=0;" parent="1" edge="1">
                    <mxGeometry width="50" height="50" relative="1" as="geometry">
                        <mxPoint x="380" y="100" as="sourcePoint"/>
                        <mxPoint x="420" y="60" as="targetPoint"/>
                    </mxGeometry>
                </mxCell>
                <mxCell id="b28ZHeFcu94E5JFnOyzC-12" value="" style="endArrow=baseDash;html=1;rounded=0;startArrow=baseDash;startFill=0;endFill=0;" parent="1" edge="1">
                    <mxGeometry width="50" height="50" relative="1" as="geometry">
                        <mxPoint x="540" y="100" as="sourcePoint"/>
                        <mxPoint x="500" y="60" as="targetPoint"/>
                    </mxGeometry>
                </mxCell>
                <mxCell id="b28ZHeFcu94E5JFnOyzC-14" value="" style="endArrow=baseDash;html=1;rounded=0;startArrow=baseDash;startFill=0;endFill=0;exitX=0.5;exitY=1;exitDx=0;exitDy=0;" parent="1" edge="1" source="zUWISpWSStwopmOI35eP-12">
                    <mxGeometry width="50" height="50" relative="1" as="geometry">
                        <mxPoint x="480" y="60" as="sourcePoint"/>
                        <mxPoint x="540" y="100" as="targetPoint"/>
                        <Array as="points">
                            <mxPoint x="560" y="60"/>
                            <mxPoint x="580" y="40"/>
                            <mxPoint x="640" y="40"/>
                            <mxPoint x="640" y="120"/>
                            <mxPoint x="580" y="120"/>
                            <mxPoint x="560" y="100"/>
                        </Array>
                    </mxGeometry>
                </mxCell>
                <mxCell id="b28ZHeFcu94E5JFnOyzC-15" value="" style="rounded=0;whiteSpace=wrap;html=1;" parent="1" vertex="1">
                    <mxGeometry x="190" y="30" width="60" height="20" as="geometry"/>
                </mxCell>
                <mxCell id="zUWISpWSStwopmOI35eP-5" value="j0a" style="text;html=1;strokeColor=none;fillColor=none;align=center;verticalAlign=middle;whiteSpace=wrap;rounded=0;fontFamily=Lucida Console;" parent="1" vertex="1">
                    <mxGeometry x="360" y="100" width="40" height="20" as="geometry"/>
                </mxCell>
                <mxCell id="zUWISpWSStwopmOI35eP-10" value="j0b" style="text;html=1;strokeColor=none;fillColor=none;align=center;verticalAlign=middle;whiteSpace=wrap;rounded=0;fontFamily=Lucida Console;" parent="1" vertex="1">
                    <mxGeometry x="400" y="40" width="40" height="20" as="geometry"/>
                </mxCell>
                <mxCell id="zUWISpWSStwopmOI35eP-11" value="j1a" style="text;html=1;strokeColor=none;fillColor=none;align=center;verticalAlign=middle;whiteSpace=wrap;rounded=0;fontFamily=Lucida Console;" parent="1" vertex="1">
                    <mxGeometry x="520" y="100" width="40" height="20" as="geometry"/>
                </mxCell>
                <mxCell id="zUWISpWSStwopmOI35eP-12" value="j1b" style="text;html=1;strokeColor=none;fillColor=none;align=center;verticalAlign=middle;whiteSpace=wrap;rounded=0;fontFamily=Lucida Console;" parent="1" vertex="1">
                    <mxGeometry x="480" y="40" width="40" height="20" as="geometry"/>
                </mxCell>
                <mxCell id="zUWISpWSStwopmOI35eP-14" value="s0" style="text;html=1;strokeColor=none;fillColor=none;align=center;verticalAlign=middle;whiteSpace=wrap;rounded=0;fontFamily=Lucida Console;" parent="1" vertex="1">
                    <mxGeometry x="40" y="70" width="40" height="20" as="geometry"/>
                </mxCell>
                <mxCell id="zUWISpWSStwopmOI35eP-17" value="s1" style="text;html=1;strokeColor=none;fillColor=none;align=center;verticalAlign=middle;whiteSpace=wrap;rounded=0;fontFamily=Lucida Console;" parent="1" vertex="1">
                    <mxGeometry x="440" y="60" width="40" height="20" as="geometry"/>
                </mxCell>
                <mxCell id="zUWISpWSStwopmOI35eP-18" value="s2" style="text;html=1;strokeColor=none;fillColor=none;align=center;verticalAlign=middle;whiteSpace=wrap;rounded=0;fontFamily=Lucida Console;" parent="1" vertex="1">
                    <mxGeometry x="600" y="70" width="40" height="20" as="geometry"/>
                </mxCell>
                <mxCell id="zUWISpWSStwopmOI35eP-19" value="s3" style="text;html=1;strokeColor=none;fillColor=none;align=center;verticalAlign=middle;whiteSpace=wrap;rounded=0;fontFamily=Lucida Console;" parent="1" vertex="1">
                    <mxGeometry x="440" y="100" width="40" height="20" as="geometry"/>
                </mxCell>
                <mxCell id="zUWISpWSStwopmOI35eP-24" value="s4" style="text;html=1;strokeColor=none;fillColor=none;align=center;verticalAlign=middle;whiteSpace=wrap;rounded=0;fontFamily=Lucida Console;" parent="1" vertex="1">
                    <mxGeometry x="360" y="70" width="40" height="20" as="geometry"/>
                </mxCell>
                <mxCell id="zUWISpWSStwopmOI35eP-25" value="s5" style="text;html=1;strokeColor=none;fillColor=none;align=center;verticalAlign=middle;whiteSpace=wrap;rounded=0;fontFamily=Lucida Console;" parent="1" vertex="1">
                    <mxGeometry x="520" y="70" width="40" height="20" as="geometry"/>
                </mxCell>
                <mxCell id="otQysUnFZSz2SC1vYD-y-1" value="" style="rounded=0;whiteSpace=wrap;html=1;" parent="1" vertex="1">
                    <mxGeometry x="190" y="110" width="60" height="20" as="geometry"/>
                </mxCell>
                <mxCell id="3" value="" style="rhombus;whiteSpace=wrap;html=1;strokeColor=none;fillColor=#FFFFFF;" vertex="1" parent="1">
                    <mxGeometry x="190" y="90" width="10" height="10" as="geometry"/>
                </mxCell>
                <mxCell id="5" value="" style="rhombus;whiteSpace=wrap;html=1;strokeColor=none;fillColor=#FFFFFF;" vertex="1" parent="1">
                    <mxGeometry x="240" y="60" width="10" height="10" as="geometry"/>
                </mxCell>
                <mxCell id="6" value="" style="rhombus;whiteSpace=wrap;html=1;strokeColor=none;fillColor=#FFFFFF;" vertex="1" parent="1">
                    <mxGeometry x="430" y="60" width="10" height="10" as="geometry"/>
                </mxCell>
                <mxCell id="7" value="" style="rhombus;whiteSpace=wrap;html=1;strokeColor=none;fillColor=#FFFFFF;" vertex="1" parent="1">
                    <mxGeometry x="480" y="60" width="10" height="10" as="geometry"/>
                </mxCell>
                <mxCell id="8" value="" style="rhombus;whiteSpace=wrap;html=1;strokeColor=none;fillColor=#FFFFFF;" vertex="1" parent="1">
                    <mxGeometry x="430" y="90" width="10" height="10" as="geometry"/>
                </mxCell>
                <mxCell id="9" value="0" style="text;html=1;strokeColor=none;fillColor=none;align=center;verticalAlign=middle;whiteSpace=wrap;rounded=0;fontFamily=Lucida Console;" vertex="1" parent="1">
                    <mxGeometry x="200" y="85" width="20" height="20" as="geometry"/>
                </mxCell>
                <mxCell id="10" value="1" style="text;html=1;strokeColor=none;fillColor=none;align=center;verticalAlign=middle;whiteSpace=wrap;rounded=0;fontFamily=Lucida Console;" vertex="1" parent="1">
                    <mxGeometry x="220" y="55" width="20" height="20" as="geometry"/>
                </mxCell>
                <mxCell id="11" value="2" style="text;html=1;strokeColor=none;fillColor=none;align=center;verticalAlign=middle;whiteSpace=wrap;rounded=0;fontFamily=Lucida Console;" vertex="1" parent="1">
                    <mxGeometry x="425" y="70" width="20" height="20" as="geometry"/>
                </mxCell>
                <mxCell id="12" value="3" style="text;html=1;strokeColor=none;fillColor=none;align=center;verticalAlign=middle;whiteSpace=wrap;rounded=0;fontFamily=Lucida Console;" vertex="1" parent="1">
                    <mxGeometry x="475" y="70" width="20" height="20" as="geometry"/>
                </mxCell>
                <mxCell id="13" value="4" style="text;html=1;strokeColor=none;fillColor=none;align=center;verticalAlign=middle;whiteSpace=wrap;rounded=0;fontFamily=Lucida Console;" vertex="1" parent="1">
                    <mxGeometry x="440" y="85" width="20" height="20" as="geometry"/>
                </mxCell>
            </root>
        </mxGraphModel>
    </diagram>
    <diagram name="v1" id="IFGygRtNq5C-5qDEJABb">
        <mxGraphModel dx="1020" dy="542" grid="1" gridSize="10" guides="1" tooltips="1" connect="1" arrows="1" fold="1" page="1" pageScale="1" pageWidth="827" pageHeight="1169" math="0" shadow="0">
            <root>
                <mxCell id="SxsefdtrfJNzgVN2meou-0"/>
                <mxCell id="SxsefdtrfJNzgVN2meou-1" parent="SxsefdtrfJNzgVN2meou-0"/>
                <mxCell id="SxsefdtrfJNzgVN2meou-2" value="" style="endArrow=baseDash;html=1;rounded=0;startArrow=baseDash;startFill=0;endFill=0;" parent="SxsefdtrfJNzgVN2meou-1" edge="1">
                    <mxGeometry width="50" height="50" relative="1" as="geometry">
                        <mxPoint x="200" y="60" as="sourcePoint"/>
                        <mxPoint x="160" y="100" as="targetPoint"/>
                        <Array as="points">
                            <mxPoint x="120" y="60"/>
                            <mxPoint x="100" y="40"/>
                            <mxPoint x="40" y="40"/>
                            <mxPoint x="40" y="120"/>
                            <mxPoint x="100" y="120"/>
                            <mxPoint x="120" y="100"/>
                        </Array>
                    </mxGeometry>
                </mxCell>
                <mxCell id="SxsefdtrfJNzgVN2meou-3" value="" style="endArrow=baseDash;html=1;rounded=0;startArrow=baseDash;startFill=0;endFill=0;" parent="SxsefdtrfJNzgVN2meou-1" edge="1">
                    <mxGeometry width="50" height="50" relative="1" as="geometry">
                        <mxPoint x="160" y="100" as="sourcePoint"/>
                        <mxPoint x="280" y="100" as="targetPoint"/>
                    </mxGeometry>
                </mxCell>
                <mxCell id="SxsefdtrfJNzgVN2meou-4" value="" style="endArrow=baseDash;html=1;rounded=0;startArrow=baseDash;startFill=0;endFill=0;" parent="SxsefdtrfJNzgVN2meou-1" edge="1">
                    <mxGeometry width="50" height="50" relative="1" as="geometry">
                        <mxPoint x="200" y="60" as="sourcePoint"/>
                        <mxPoint x="240" y="60" as="targetPoint"/>
                    </mxGeometry>
                </mxCell>
                <mxCell id="SxsefdtrfJNzgVN2meou-5" value="" style="endArrow=baseDash;html=1;rounded=0;startArrow=baseDash;startFill=0;endFill=0;" parent="SxsefdtrfJNzgVN2meou-1" edge="1">
                    <mxGeometry width="50" height="50" relative="1" as="geometry">
                        <mxPoint x="160" y="100" as="sourcePoint"/>
                        <mxPoint x="200" y="60" as="targetPoint"/>
                    </mxGeometry>
                </mxCell>
                <mxCell id="SxsefdtrfJNzgVN2meou-6" value="" style="endArrow=baseDash;html=1;rounded=0;startArrow=baseDash;startFill=0;endFill=0;" parent="SxsefdtrfJNzgVN2meou-1" edge="1">
                    <mxGeometry width="50" height="50" relative="1" as="geometry">
                        <mxPoint x="280" y="100" as="sourcePoint"/>
                        <mxPoint x="240" y="60" as="targetPoint"/>
                    </mxGeometry>
                </mxCell>
                <mxCell id="SxsefdtrfJNzgVN2meou-7" value="" style="endArrow=baseDash;html=1;rounded=0;startArrow=baseDash;startFill=0;endFill=0;" parent="SxsefdtrfJNzgVN2meou-1" edge="1">
                    <mxGeometry width="50" height="50" relative="1" as="geometry">
                        <mxPoint x="400" y="100" as="sourcePoint"/>
                        <mxPoint x="280" y="100.00000000000006" as="targetPoint"/>
                        <Array as="points">
                            <mxPoint x="380" y="120"/>
                            <mxPoint x="300" y="120"/>
                        </Array>
                    </mxGeometry>
                </mxCell>
                <mxCell id="SxsefdtrfJNzgVN2meou-8" value="" style="endArrow=baseDash;html=1;rounded=0;startArrow=baseDash;startFill=0;endFill=0;" parent="SxsefdtrfJNzgVN2meou-1" edge="1">
                    <mxGeometry width="50" height="50" relative="1" as="geometry">
                        <mxPoint x="400" y="100" as="sourcePoint"/>
                        <mxPoint x="520" y="100" as="targetPoint"/>
                    </mxGeometry>
                </mxCell>
                <mxCell id="SxsefdtrfJNzgVN2meou-9" value="" style="endArrow=baseDash;html=1;rounded=0;startArrow=baseDash;startFill=0;endFill=0;" parent="SxsefdtrfJNzgVN2meou-1" edge="1">
                    <mxGeometry width="50" height="50" relative="1" as="geometry">
                        <mxPoint x="440" y="60" as="sourcePoint"/>
                        <mxPoint x="480" y="60" as="targetPoint"/>
                    </mxGeometry>
                </mxCell>
                <mxCell id="SxsefdtrfJNzgVN2meou-10" value="" style="endArrow=baseDash;html=1;rounded=0;startArrow=baseDash;startFill=0;endFill=0;" parent="SxsefdtrfJNzgVN2meou-1" edge="1">
                    <mxGeometry width="50" height="50" relative="1" as="geometry">
                        <mxPoint x="400" y="100" as="sourcePoint"/>
                        <mxPoint x="440" y="60" as="targetPoint"/>
                    </mxGeometry>
                </mxCell>
                <mxCell id="SxsefdtrfJNzgVN2meou-11" value="" style="endArrow=baseDash;html=1;rounded=0;startArrow=baseDash;startFill=0;endFill=0;" parent="SxsefdtrfJNzgVN2meou-1" edge="1">
                    <mxGeometry width="50" height="50" relative="1" as="geometry">
                        <mxPoint x="520" y="100" as="sourcePoint"/>
                        <mxPoint x="480" y="60" as="targetPoint"/>
                    </mxGeometry>
                </mxCell>
                <mxCell id="SxsefdtrfJNzgVN2meou-12" value="" style="endArrow=baseDash;html=1;rounded=0;startArrow=baseDash;startFill=0;endFill=0;" parent="SxsefdtrfJNzgVN2meou-1" edge="1">
                    <mxGeometry width="50" height="50" relative="1" as="geometry">
                        <mxPoint x="240" y="60" as="sourcePoint"/>
                        <mxPoint x="440" y="60" as="targetPoint"/>
                    </mxGeometry>
                </mxCell>
                <mxCell id="SxsefdtrfJNzgVN2meou-13" value="" style="endArrow=baseDash;html=1;rounded=0;startArrow=baseDash;startFill=0;endFill=0;" parent="SxsefdtrfJNzgVN2meou-1" edge="1">
                    <mxGeometry width="50" height="50" relative="1" as="geometry">
                        <mxPoint x="480" y="60" as="sourcePoint"/>
                        <mxPoint x="520" y="100" as="targetPoint"/>
                        <Array as="points">
                            <mxPoint x="560" y="60"/>
                            <mxPoint x="580" y="40"/>
                            <mxPoint x="640" y="40"/>
                            <mxPoint x="640" y="120"/>
                            <mxPoint x="580" y="120"/>
                            <mxPoint x="560" y="100"/>
                        </Array>
                    </mxGeometry>
                </mxCell>
                <mxCell id="SxsefdtrfJNzgVN2meou-14" value="" style="rounded=0;whiteSpace=wrap;html=1;" parent="SxsefdtrfJNzgVN2meou-1" vertex="1">
                    <mxGeometry x="310" y="80" width="60" height="20" as="geometry"/>
                </mxCell>
                <mxCell id="SxsefdtrfJNzgVN2meou-15" value="j0b" style="text;html=1;strokeColor=none;fillColor=none;align=center;verticalAlign=middle;whiteSpace=wrap;rounded=0;fontFamily=Lucida Console;" parent="SxsefdtrfJNzgVN2meou-1" vertex="1">
                    <mxGeometry x="180" y="40" width="40" height="20" as="geometry"/>
                </mxCell>
                <mxCell id="SxsefdtrfJNzgVN2meou-16" value="j0a" style="text;html=1;strokeColor=none;fillColor=none;align=center;verticalAlign=middle;whiteSpace=wrap;rounded=0;fontFamily=Lucida Console;" parent="SxsefdtrfJNzgVN2meou-1" vertex="1">
                    <mxGeometry x="140" y="100" width="40" height="20" as="geometry"/>
                </mxCell>
                <mxCell id="SxsefdtrfJNzgVN2meou-17" value="j1b" style="text;html=1;strokeColor=none;fillColor=none;align=center;verticalAlign=middle;whiteSpace=wrap;rounded=0;fontFamily=Lucida Console;" parent="SxsefdtrfJNzgVN2meou-1" vertex="1">
                    <mxGeometry x="220" y="40" width="40" height="20" as="geometry"/>
                </mxCell>
                <mxCell id="SxsefdtrfJNzgVN2meou-18" value="j1a" style="text;html=1;strokeColor=none;fillColor=none;align=center;verticalAlign=middle;whiteSpace=wrap;rounded=0;fontFamily=Lucida Console;" parent="SxsefdtrfJNzgVN2meou-1" vertex="1">
                    <mxGeometry x="250" y="100" width="40" height="20" as="geometry"/>
                </mxCell>
                <mxCell id="SxsefdtrfJNzgVN2meou-19" value="j2a" style="text;html=1;strokeColor=none;fillColor=none;align=center;verticalAlign=middle;whiteSpace=wrap;rounded=0;fontFamily=Lucida Console;" parent="SxsefdtrfJNzgVN2meou-1" vertex="1">
                    <mxGeometry x="390" y="100" width="40" height="20" as="geometry"/>
                </mxCell>
                <mxCell id="SxsefdtrfJNzgVN2meou-20" value="j2b" style="text;html=1;strokeColor=none;fillColor=none;align=center;verticalAlign=middle;whiteSpace=wrap;rounded=0;fontFamily=Lucida Console;" parent="SxsefdtrfJNzgVN2meou-1" vertex="1">
                    <mxGeometry x="420" y="40" width="40" height="20" as="geometry"/>
                </mxCell>
                <mxCell id="SxsefdtrfJNzgVN2meou-21" value="j3a" style="text;html=1;strokeColor=none;fillColor=none;align=center;verticalAlign=middle;whiteSpace=wrap;rounded=0;fontFamily=Lucida Console;" parent="SxsefdtrfJNzgVN2meou-1" vertex="1">
                    <mxGeometry x="500" y="100" width="40" height="20" as="geometry"/>
                </mxCell>
                <mxCell id="SxsefdtrfJNzgVN2meou-22" value="j3a" style="text;html=1;strokeColor=none;fillColor=none;align=center;verticalAlign=middle;whiteSpace=wrap;rounded=0;fontFamily=Lucida Console;" parent="SxsefdtrfJNzgVN2meou-1" vertex="1">
                    <mxGeometry x="460" y="40" width="40" height="20" as="geometry"/>
                </mxCell>
                <mxCell id="SxsefdtrfJNzgVN2meou-23" value="s00" style="text;html=1;strokeColor=none;fillColor=none;align=center;verticalAlign=middle;whiteSpace=wrap;rounded=0;fontFamily=Lucida Console;" parent="SxsefdtrfJNzgVN2meou-1" vertex="1">
                    <mxGeometry x="40" y="70" width="40" height="20" as="geometry"/>
                </mxCell>
                <mxCell id="SxsefdtrfJNzgVN2meou-24" value="s01" style="text;html=1;strokeColor=none;fillColor=none;align=center;verticalAlign=middle;whiteSpace=wrap;rounded=0;fontFamily=Lucida Console;" parent="SxsefdtrfJNzgVN2meou-1" vertex="1">
                    <mxGeometry x="200" y="60" width="40" height="20" as="geometry"/>
                </mxCell>
                <mxCell id="SxsefdtrfJNzgVN2meou-25" value="s02" style="text;html=1;strokeColor=none;fillColor=none;align=center;verticalAlign=middle;whiteSpace=wrap;rounded=0;fontFamily=Lucida Console;" parent="SxsefdtrfJNzgVN2meou-1" vertex="1">
                    <mxGeometry x="320" y="60" width="40" height="20" as="geometry"/>
                </mxCell>
                <mxCell id="SxsefdtrfJNzgVN2meou-26" value="s03" style="text;html=1;strokeColor=none;fillColor=none;align=center;verticalAlign=middle;whiteSpace=wrap;rounded=0;fontFamily=Lucida Console;" parent="SxsefdtrfJNzgVN2meou-1" vertex="1">
                    <mxGeometry x="440" y="60" width="40" height="20" as="geometry"/>
                </mxCell>
                <mxCell id="SxsefdtrfJNzgVN2meou-27" value="s04" style="text;html=1;strokeColor=none;fillColor=none;align=center;verticalAlign=middle;whiteSpace=wrap;rounded=0;fontFamily=Lucida Console;" parent="SxsefdtrfJNzgVN2meou-1" vertex="1">
                    <mxGeometry x="600" y="70" width="40" height="20" as="geometry"/>
                </mxCell>
                <mxCell id="SxsefdtrfJNzgVN2meou-28" value="s05" style="text;html=1;strokeColor=none;fillColor=none;align=center;verticalAlign=middle;whiteSpace=wrap;rounded=0;fontFamily=Lucida Console;" parent="SxsefdtrfJNzgVN2meou-1" vertex="1">
                    <mxGeometry x="440" y="100" width="40" height="20" as="geometry"/>
                </mxCell>
                <mxCell id="SxsefdtrfJNzgVN2meou-29" value="s06" style="text;html=1;strokeColor=none;fillColor=none;align=center;verticalAlign=middle;whiteSpace=wrap;rounded=0;fontFamily=Lucida Console;" parent="SxsefdtrfJNzgVN2meou-1" vertex="1">
                    <mxGeometry x="320" y="100" width="40" height="20" as="geometry"/>
                </mxCell>
                <mxCell id="SxsefdtrfJNzgVN2meou-30" value="s07" style="text;html=1;strokeColor=none;fillColor=none;align=center;verticalAlign=middle;whiteSpace=wrap;rounded=0;fontFamily=Lucida Console;" parent="SxsefdtrfJNzgVN2meou-1" vertex="1">
                    <mxGeometry x="200" y="100" width="40" height="20" as="geometry"/>
                </mxCell>
                <mxCell id="SxsefdtrfJNzgVN2meou-31" value="s08" style="text;html=1;strokeColor=none;fillColor=none;align=center;verticalAlign=middle;whiteSpace=wrap;rounded=0;fontFamily=Lucida Console;" parent="SxsefdtrfJNzgVN2meou-1" vertex="1">
                    <mxGeometry x="140" y="70" width="40" height="20" as="geometry"/>
                </mxCell>
                <mxCell id="SxsefdtrfJNzgVN2meou-32" value="s09" style="text;html=1;strokeColor=none;fillColor=none;align=center;verticalAlign=middle;whiteSpace=wrap;rounded=0;fontFamily=Lucida Console;" parent="SxsefdtrfJNzgVN2meou-1" vertex="1">
                    <mxGeometry x="260" y="70" width="40" height="20" as="geometry"/>
                </mxCell>
                <mxCell id="SxsefdtrfJNzgVN2meou-33" value="s10" style="text;html=1;strokeColor=none;fillColor=none;align=center;verticalAlign=middle;whiteSpace=wrap;rounded=0;fontFamily=Lucida Console;" parent="SxsefdtrfJNzgVN2meou-1" vertex="1">
                    <mxGeometry x="380" y="70" width="40" height="20" as="geometry"/>
                </mxCell>
                <mxCell id="SxsefdtrfJNzgVN2meou-34" value="s11" style="text;html=1;strokeColor=none;fillColor=none;align=center;verticalAlign=middle;whiteSpace=wrap;rounded=0;fontFamily=Lucida Console;" parent="SxsefdtrfJNzgVN2meou-1" vertex="1">
                    <mxGeometry x="500" y="70" width="40" height="20" as="geometry"/>
                </mxCell>
            </root>
        </mxGraphModel>
    </diagram>
</mxfile>